<svg height="512" viewBox="0 0 512 512" width="512" xmlns="http://www.w3.org/2000/svg"><g id="Flat"><path d="m400 282.394c-6.21-43.48-21.45-101.42-50.9-125.16-.5-3.46-1.06-7.19-1.67-11.07995-3.04-19.58-7.23-43.17005-11.43-55.76a89.86109 89.86109 0 0 0 -5.7-13.61c14.96-28.74005-17.72-48.25-35.64-29.17-10.17-3.3-22.81-5.22-38.66-5.22a77.78319 77.78319 0 0 0 -24.32 3.61c-17.66-15.81-46.77 1.83-35.14 28.39.2.46.42.93.65 1.4a65.58042 65.58042 0 0 0 -2.88 6.6h-22.03a14.617 14.617 0 0 0 -8.11005 26.78l.07.05c-5.49 21.89-5.6 60.06 26.36 61.14v.01h.01a41.97152 41.97152 0 0 0 6.31 8.02h-4.91995c-55.83 0-135.51 103.37-48.79 135.7v.01a78.43045 78.43045 0 0 0 -2.88 7.46 81.80472 81.80472 0 0 0 -3.66 18.1c-.25 2.64-.41 5.32-.51 8.08a56.01335 56.01335 0 0 0 -12.16-1.35h-16a55.99738 55.99738 0 0 0 -56 56v16a55.99738 55.99738 0 0 0 56 56h228c96-.00005 72-136.00005 64-192.00005z" fill="#a06443"/><path d="m349.1 157.234c-8.9-7.13995-18.63-10.84-29.1-10.84a4 4 0 0 1 0-8 51.78075 51.78075 0 0 1 27.43 7.76c.61 3.89 1.17 7.62 1.67 11.08z" fill="#632b1a"/><path d="m175.53 371.384a3.94621 3.94621 0 0 1 -2.28.72 4.01074 4.01074 0 0 1 -3.29-1.71 56.081 56.081 0 0 0 -33.8-22.65c.1-2.76.26-5.44.51-8.08a64.09972 64.09972 0 0 1 39.85 26.15 3.99649 3.99649 0 0 1 -.99 5.57z" fill="#632b1a"/><path d="m210.04 308.684c-8.55 12.14-22.62 18.82-39.6 18.82a85.81266 85.81266 0 0 1 -29.17-5.59c-.32-.12-.63-.23-.94-.35a78.43045 78.43045 0 0 1 2.88-7.46c.26.1.52.19.79.29a77.93863 77.93863 0 0 0 26.44 5.11c14.52 0 25.95-5.34 33.06-15.43 9.01-12.78 8.64-30.39-.87-41.87-5.51-6.66-22.26-20.34-58.63-3.81a3.99859 3.99859 0 1 1 -3.31-7.28c41.4-18.82 61.42-2.09 68.1 5.98 11.77 14.22 12.3 35.91 1.25 51.59z" fill="#632b1a"/><path d="m344.00488 322.39448a8.07049 8.07049 0 0 1 -1.06152-.0708 289.183 289.183 0 0 1 -61.91455-16.502c-42.54199-17.01656-65.02881-41.71627-65.02881-71.42768 0-21.06006 8.13379-33.60938 14.95752-40.42871a45.15614 45.15614 0 0 1 31.67139-13.19287c19.33642-.00001 33.37109 12.45751 33.37109 29.62158 0 5.62988 1.4585 9.65625 4.59033 12.67187 7.96729 7.67237 25.10205 7.02 32.41992 6.74317 1.32764-.05029 2.4292-.08887 3.24805-.08887a4 4 0 0 1 0 8c-.74268 0-1.7417.0376-2.94482.083-8.33252.31885-27.85205 1.05908-38.272-8.97461-4.73826-4.56201-7.04148-10.5918-7.04148-18.43456 0-12.52832-10.66992-21.62158-25.37109-21.62158a37.10132 37.10132 0 0 0 -26.01612 10.85107c-5.7539 5.75051-12.61279 16.45067-12.61279 34.77051 0 26.16846 20.74756 48.29883 60 64a280.2353 280.2353 0 0 0 60 16 4.00025 4.00025 0 0 1 .00488 8.00049z" fill="#632b1a"/><path d="m245.66 98.394a4.00762 4.00762 0 0 1 -5.66 0c-7.87-7.87-16-16-32-16h-13.69a65.58042 65.58042 0 0 1 2.88-6.6c-.23-.47-.45-.94-.65-1.4h11.46c19.31 0 29.48 10.17 37.66 18.34a4.00765 4.00765 0 0 1 0 5.66z" fill="#632b1a"/><path d="m288 58.394c16-40 72-8 32 32z" fill="#632b1a"/><path d="m302.92676 56.35a11.26757 11.26757 0 0 1 8.64746-4.33789 10.598 10.598 0 0 1 9.769 6.35694c1.58887 3.83545.70752 8.76025-2.34424 14.05371z" fill="#a06443"/><path d="m231.69 46.004a57.95059 57.95059 0 0 0 -33.77765 28.38989q-.38133.71262-.73236 1.4101c-13.28999-27.33999 16.53001-45.89999 34.51001-29.79999z" fill="#632b1a"/><rect fill="#632b1a" height="128" rx="56" width="112" x="192" y="346.394"/><rect fill="#632b1a" height="128" rx="56" width="112" x="52" y="346.394"/><g fill="#a06443"><circle cx="76" cy="398.394" r="12"/><circle cx="108" cy="374.394" r="12"/><circle cx="140" cy="398.394" r="12"/><ellipse cx="108" cy="434.394" rx="20" ry="24"/><circle cx="216" cy="398.394" r="12"/><circle cx="248" cy="374.394" r="12"/><circle cx="280" cy="398.394" r="12"/><ellipse cx="248" cy="434.394" rx="20" ry="24"/></g><path d="m365.65685 332.73713 28.6863-28.68629a8 8 0 0 0 0-11.31371l-52.6863-52.68629a8 8 0 0 0 -11.3137 0l-81.37259 81.37259a24 24 0 0 1 -33.94112 0l-177.37259-177.37259a8 8 0 0 1 0-11.31371l28.6863-28.68629a8 8 0 0 1 11.3137 0l148.6863 148.68629a8 8 0 0 0 11.3137 0l81.37259-81.37258a24 24 0 0 1 33.94112 0l81.37259 81.37258a8 8 0 0 0 11.3137 0l28.6863-28.68629a8 8 0 0 1 13.65685 5.65686v108.6863a8 8 0 0 1 -8 8h-108.68629a8 8 0 0 1 -5.65686-13.65687z" fill="#d13913"/><path d="m202.68 108.384-.39.3-6.29-6.29a5.65686 5.65686 0 1 0 -8 8l5.15 5.15-.09.06a16.01252 16.01252 0 0 1 -18.48.51l-10.41-6.94a14.617 14.617 0 0 1 8.11-26.78h21.74a14.43789 14.43789 0 0 1 8.66 25.99z" fill="#062938"/><path d="m252 154.394c0 9.63-8.76 20-28 20a49.83282 49.83282 0 0 1 -13.04-1.7c-3.37 3.04-7.92 5.1-14.04 5.7a41.97152 41.97152 0 0 1 -6.31-8.02c.47.01.92.02 1.39.02a28.66327 28.66327 0 0 0 9.8-1.45c-.69-.39-1.37-.79-2.02-1.22-7.71-5.14-11.78-12.52-11.78-21.33a4 4 0 0 1 8 0c0 13.74 14.51 20 28 20 9.94 0 20-4.12 20-12a4 4 0 0 1 8 0z" fill="#632b1a"/><circle cx="264" cy="90.394" fill="#062938" r="8"/><path d="m345.78906 350.81635c-13.748-6.87372-33.45562-8.31354-49.6676-3.75976a63.98031 63.98031 0 0 0 -32.12146-8.66259h-16a4 4 0 0 0 0 8h16a56.08234 56.08234 0 0 1 45.9624 24 4.00012 4.00012 0 1 0 6.56153-4.57715 64.04006 64.04006 0 0 0 -11.524-12.55341c12.83929-2.09069 26.952-.42114 37.21106 4.7082a4 4 0 0 0 3.57812-7.15528z" fill="#632b1a"/><path d="m144 314.394c88 32 88-96 0-56z" fill="#a06443"/><path d="m336.25831 237.72c-8.25831 0-48.25831 4.674-48.25831-27.326s-64-32-64 24c0 64 120 80 120 80z" fill="#a06443"/><path d="m220.00342 239.08491a3.9997 3.9997 0 0 1 -3.99854-3.94922l-.00488-.74169c0-21.06006 8.13379-33.60938 14.95752-40.42871a45.15614 45.15614 0 0 1 31.67139-13.19287c10.36425 0 19.4873 3.60107 25.68945 10.13916a4.00028 4.00028 0 0 1 -5.80469 5.50586c-4.67578-4.93018-11.73779-7.645-19.88476-7.645a37.10045 37.10045 0 0 0 -26.01612 10.85107c-5.7539 5.75049-12.61279 16.45065-12.61279 34.77049l.00391.64014a3.99938 3.99938 0 0 1 -3.94873 4.05029z" fill="#632b1a"/></g></svg>